<svg xmlns="http://www.w3.org/2000/svg" viewBox="0 0 32 32"><g id="champion"><path d="M26,12A10,10,0,1,0,7,16.33V26a1,1,0,0,0,1,1h3v2a1,1,0,0,0,1.45.89L16,28.12l3.55,1.77A1,1,0,0,0,20,30a1,1,0,0,0,.53-.15A1,1,0,0,0,21,29V27h3a1,1,0,0,0,1-1V16.33A10,10,0,0,0,26,12ZM16,4a8,8,0,0,1,7.26,11.35,1,1,0,0,0-.22.44A8,8,0,0,1,19.79,19a1,1,0,0,0-.44.22,8,8,0,0,1-6.7,0,1,1,0,0,0-.44-.22A8,8,0,0,1,9,15.79a1,1,0,0,0-.22-.44A8,8,0,0,1,16,4ZM9,25V19.13a10.25,10.25,0,0,0,2,1.52V25Zm10,2.38-2.55-1.27a1,1,0,0,0-.9,0L13,27.38V21.54a10,10,0,0,0,6,0ZM21,25V20.65a10.25,10.25,0,0,0,2-1.52V25Z"/><path d="M12.89,13.11l-.38,2.18a1,1,0,0,0,.4,1,1,1,0,0,0,.59.19.93.93,0,0,0,.46-.12l2-1,2,1a1,1,0,0,0,1.05-.07,1,1,0,0,0,.4-1L19,13.11l1.58-1.54a1,1,0,0,0,.25-1,1,1,0,0,0-.8-.68L17.8,9.54l-1-2a1,1,0,0,0-1.8,0l-1,2-2.19.32a1,1,0,0,0-.81.68,1,1,0,0,0,.25,1Zm2-1.67a1,1,0,0,0,.76-.54l.31-.64.32.64a1,1,0,0,0,.75.54l.7.11-.51.49a1,1,0,0,0-.28.89l.12.7-.63-.33a1,1,0,0,0-.47-.12.93.93,0,0,0-.46.12l-.63.33.12-.7a1,1,0,0,0-.29-.89l-.51-.49Z"/></g></svg>