<svg xmlns="http://www.w3.org/2000/svg" viewBox="0 0 32 32"><g id="computer"><path d="M27.7,10H15V6.23A2.23,2.23,0,0,0,12.77,4H4.23A2.23,2.23,0,0,0,2,6.23V26.77A2.23,2.23,0,0,0,4.23,29h8.54A2.23,2.23,0,0,0,15,26.77V25h4v2H17a1,1,0,0,0,0,2h6a1,1,0,0,0,0-2H21V25h6.7A2.3,2.3,0,0,0,30,22.7V12.3A2.3,2.3,0,0,0,27.7,10Zm0,2a.31.31,0,0,1,.3.3V20H15V12ZM4.23,6h8.54a.23.23,0,0,1,.23.23V8H4V6.23A.23.23,0,0,1,4.23,6ZM13,26.77a.23.23,0,0,1-.23.23H4.23A.23.23,0,0,1,4,26.77V10h9V26.77ZM28,22.7a.31.31,0,0,1-.3.3H15V22H28Z"/><path d="M8.5,18A3.5,3.5,0,1,0,12,21.5,3.5,3.5,0,0,0,8.5,18Zm0,5A1.5,1.5,0,1,1,10,21.5,1.5,1.5,0,0,1,8.5,23Z"/><path d="M8,17H9a1,1,0,0,0,0-2H8a1,1,0,0,0,0,2Z"/></g></svg>