<svg xmlns="http://www.w3.org/2000/svg" viewBox="0 0 32 32"><g id="device"><path d="M27,19H20v-.92A2.08,2.08,0,0,0,17.92,16H17V15h5.85A2.15,2.15,0,0,0,25,12.85V4.15A2.15,2.15,0,0,0,22.85,2H9.15A2.15,2.15,0,0,0,7,4.15v8.7A2.15,2.15,0,0,0,9.15,15H15v1h-.92A2.08,2.08,0,0,0,12,18.08V19H5a1,1,0,0,0-1,1v9a1,1,0,0,0,1,1H27a1,1,0,0,0,1-1V20A1,1,0,0,0,27,19ZM9,12.85V4.15A.15.15,0,0,1,9.15,4h13.7a.15.15,0,0,1,.15.15v8.7a.15.15,0,0,1-.15.15H9.15A.15.15,0,0,1,9,12.85Zm5,5.23a.07.07,0,0,1,.08-.08h3.84a.07.07,0,0,1,.08.08V19H14ZM26,28H6V21H26Z"/><path d="M19,25H13a1,1,0,0,0,0,2h6a1,1,0,0,0,0-2Z"/><path d="M18,22a1,1,0,0,0,0,2h1a1,1,0,0,0,0-2Z"/><path d="M22,24h1a1,1,0,0,0,0-2H22a1,1,0,0,0,0,2Z"/><path d="M10,22H9a1,1,0,0,0,0,2h1a1,1,0,0,0,0-2Z"/><path d="M22,27h1a1,1,0,0,0,0-2H22a1,1,0,0,0,0,2Z"/><path d="M10,25H9a1,1,0,0,0,0,2h1a1,1,0,0,0,0-2Z"/><path d="M13,24h1a1,1,0,0,0,0-2H13a1,1,0,0,0,0,2Z"/><path d="M14,8h7a1,1,0,0,0,0-2H14a1,1,0,0,0,0,2Z"/><path d="M11,6h0a1,1,0,1,0,1,1A1,1,0,0,0,11,6Z"/><path d="M22,10a1,1,0,0,0-1-1H14a1,1,0,0,0,0,2h7A1,1,0,0,0,22,10Z"/><path d="M11,9h0a1,1,0,1,0,1,1A1,1,0,0,0,11,9Z"/></g></svg>