<svg xmlns="http://www.w3.org/2000/svg" viewBox="0 0 32 32"><g id="gamers"><path d="M28.57,15.42,25,11.84v-.26a2.32,2.32,0,0,0-2.32-2.32H20.41l.08-.08a1.59,1.59,0,0,0-.88-2.71L18.1,6.25l-.68-1.36h0a1.58,1.58,0,0,0-2.84,0L13.9,6.25l-1.51.22a1.59,1.59,0,0,0-.88,2.71l.08.08H9.32A2.32,2.32,0,0,0,7,11.58v.26L3.43,15.42A4.88,4.88,0,0,0,2,18.86v8.4a1,1,0,0,0,2,0v-8.4a2.93,2.93,0,0,1,.84-2L7,14.67v3.51l-.37.15a1,1,0,0,0,.74,1.86L11.1,18.7a.49.49,0,0,1,.62.23.48.48,0,0,1,0,.49L9.28,23A7.54,7.54,0,0,0,8,27.26a1,1,0,1,0,2,0,5.63,5.63,0,0,1,.94-3.11l.65-1a1.12,1.12,0,0,0,.41.09h8a1.12,1.12,0,0,0,.41-.09l.65,1A5.63,5.63,0,0,1,22,27.26a1,1,0,1,0,2,0A7.54,7.54,0,0,0,22.72,23l-2.41-3.62a.48.48,0,0,1,0-.49.49.49,0,0,1,.62-.23l3.73,1.49a1,1,0,1,0,.74-1.86L25,18.18V14.67l2.16,2.16a2.93,2.93,0,0,1,.84,2v8.4a1,1,0,1,0,2,0v-8.4A4.88,4.88,0,0,0,28.57,15.42ZM14.4,8.2a1.6,1.6,0,0,0,1.2-.87l.4-.81.4.81a1.6,1.6,0,0,0,1.2.87l.89.13L17.85,9a1.58,1.58,0,0,0-.46,1.41l.15.89-.8-.42a1.61,1.61,0,0,0-1.48,0l-.8.42.15-.89A1.6,1.6,0,0,0,14.16,9l-.65-.63Zm7.25,8.64A2.51,2.51,0,0,0,18.49,18a2.47,2.47,0,0,0,.16,2.49l.48.73H12.87l.48-.73A2.47,2.47,0,0,0,13.51,18a2.51,2.51,0,0,0-3.15-1.2L9,17.38v-5.8a.32.32,0,0,1,.32-.32h3.11l-.08.49A1.57,1.57,0,0,0,13,13.3a1.59,1.59,0,0,0,.93.3,1.62,1.62,0,0,0,.74-.18L16,12.71l1.35.71a1.59,1.59,0,0,0,2.3-1.68l-.08-.48h3.11a.32.32,0,0,1,.32.32v5.8Z"/></g></svg>