<svg xmlns="http://www.w3.org/2000/svg" viewBox="0 0 32 32"><g id="game"><path d="M23.58,2H8.42A2.42,2.42,0,0,0,6,4.42V27.58A2.42,2.42,0,0,0,8.42,30H23.58A2.42,2.42,0,0,0,26,27.58V4.42A2.42,2.42,0,0,0,23.58,2ZM8,4.42A.42.42,0,0,1,8.42,4H23.58a.42.42,0,0,1,.42.42V24H8V22H21a1,1,0,0,0,1-1V17a1,1,0,0,0-1-1H12V14h5a1,1,0,0,0,1-1V9a1,1,0,0,0-2,0v3H11a1,1,0,0,0-1,1v4a1,1,0,0,0,1,1h9v2H8ZM24,27.58a.42.42,0,0,1-.42.42H8.42A.42.42,0,0,1,8,27.58V26H24Z"/><path d="M17,7a1,1,0,0,0,0-2h0a1,1,0,0,0,0,2Z"/></g></svg>