<svg xmlns="http://www.w3.org/2000/svg" viewBox="0 0 32 32"><g id="rocket"><path d="M29.53,20.15l-1.56-1A.86.86,0,0,0,28,19V15a1,1,0,0,0-2,0V18l-4-2.5V10a1,1,0,0,0-.23-.64l-5-6a1,1,0,0,0-1.54,0l-5,6A1,1,0,0,0,10,10v5.45L6,18V15a1,1,0,0,0-2,0v4a.47.47,0,0,0,0,.17l-1.57,1A1,1,0,0,0,2,21v4a1,1,0,0,0,1,1h7.46l1.21,1.81A2.66,2.66,0,0,0,13.89,29h4.22a2.66,2.66,0,0,0,2.22-1.19L21.54,26H29a1,1,0,0,0,1-1V21A1,1,0,0,0,29.53,20.15ZM12,10.36l4-4.8,4,4.8V21H12ZM4,21.55l6-3.75V24H4ZM18.66,26.7a.65.65,0,0,1-.55.3H13.89a.65.65,0,0,1-.55-.3L12,24.7V23h8v1.7ZM28,24H22V17.8l6,3.75Z"/><path d="M16,10a3,3,0,1,0,3,3A3,3,0,0,0,16,10Zm0,4a1,1,0,1,1,1-1A1,1,0,0,1,16,14Z"/><path d="M5,13a1,1,0,0,0,1-1V10a1,1,0,0,0-2,0v2A1,1,0,0,0,5,13Z"/><path d="M5,8A1,1,0,0,0,6,7V6A1,1,0,0,0,4,6V7A1,1,0,0,0,5,8Z"/><path d="M27,13a1,1,0,0,0,1-1V10a1,1,0,0,0-2,0v2A1,1,0,0,0,27,13Z"/><path d="M27,8a1,1,0,0,0,1-1V6a1,1,0,0,0-2,0V7A1,1,0,0,0,27,8Z"/></g></svg>